<svg width="32" height="32" viewBox="0 0 32 32" fill="none" xmlns="http://www.w3.org/2000/svg">
<g clip-path="url(#clip0_6243_11013)">
<path d="M10.3264 4.64468L4.84766 13.3864L5.978 14.0948L11.4568 5.35311L10.3264 4.64468Z" fill="#88DDB4"/>
<path d="M14.1282 3.50034L13.5605 4.70605L25.3517 10.2576L25.9194 9.05185L14.1282 3.50034Z" fill="#88DDB4"/>
<path d="M25.5848 11.9979L14.126 23.0065L15.0492 23.9675L26.508 12.9589L25.5848 11.9979Z" fill="#88DDB4"/>
<path d="M26.9368 13.2035L24.9805 26.594L26.2998 26.7867L28.2561 13.3962L26.9368 13.2035Z" fill="#88DDB4"/>
<path d="M25.2514 10.5957L6.45703 14.7682L6.74615 16.0705L25.5406 11.898L25.2514 10.5957Z" fill="#88DDB4"/>
<path d="M12.6654 28.6667C12.0061 28.6667 11.3616 28.4712 10.8135 28.1049C10.2653 27.7386 9.83806 27.218 9.58577 26.6089C9.33348 25.9999 9.26746 25.3296 9.39608 24.683C9.5247 24.0364 9.84217 23.4425 10.3083 22.9763C10.7745 22.5101 11.3685 22.1927 12.0151 22.0641C12.6617 21.9354 13.3319 22.0014 13.941 22.2537C14.5501 22.506 15.0707 22.9333 15.4369 23.4814C15.8032 24.0296 15.9987 24.6741 15.9987 25.3333C15.9976 26.2171 15.6461 27.0643 15.0212 27.6892C14.3963 28.3141 13.5491 28.6656 12.6654 28.6667Z" fill="#21BF73"/>
<path d="M3.99837 19.3333C3.3391 19.3333 2.69464 19.1378 2.14647 18.7715C1.59831 18.4053 1.17107 17.8847 0.918775 17.2756C0.666483 16.6665 0.600472 15.9963 0.72909 15.3497C0.857707 14.7031 1.17518 14.1091 1.64135 13.6429C2.10753 13.1768 2.70147 12.8593 3.34807 12.7307C3.99468 12.6021 4.6649 12.6681 5.27399 12.9204C5.88307 13.1727 6.40367 13.5999 6.76994 14.1481C7.13621 14.6962 7.33171 15.3407 7.33171 16C7.33065 16.8837 6.97912 17.7309 6.35423 18.3558C5.72934 18.9807 4.8821 19.3322 3.99837 19.3333Z" fill="#165034"/>
<path d="M27.9984 13.9999C27.3391 13.9999 26.6946 13.8044 26.1465 13.4382C25.5983 13.0719 25.1711 12.5513 24.9188 11.9422C24.6665 11.3331 24.6005 10.6629 24.7291 10.0163C24.8577 9.36968 25.1752 8.77574 25.6414 8.30956C26.1075 7.84339 26.7015 7.52592 27.3481 7.3973C27.9947 7.26869 28.6649 7.3347 29.274 7.58699C29.8831 7.83928 30.4037 8.26652 30.7699 8.81469C31.1362 9.36285 31.3317 10.0073 31.3317 10.6666C31.3306 11.5503 30.9791 12.3975 30.3542 13.0224C29.7293 13.6473 28.8821 13.9989 27.9984 13.9999Z" fill="#21BF73"/>
<path d="M11.9987 5.99996C11.4713 5.99996 10.9557 5.84356 10.5172 5.55055C10.0786 5.25753 9.73685 4.84105 9.53502 4.35378C9.33319 3.86651 9.28038 3.33034 9.38327 2.81305C9.48617 2.29577 9.74014 1.82062 10.1131 1.44768C10.486 1.07474 10.9612 0.82076 11.4785 0.717866C11.9957 0.614973 12.5319 0.667781 13.0192 0.869615C13.5065 1.07145 13.9229 1.41324 14.216 1.85177C14.509 2.2903 14.6654 2.80588 14.6654 3.33329C14.6654 4.04054 14.3844 4.71881 13.8843 5.21891C13.3842 5.71901 12.7059 5.99996 11.9987 5.99996Z" fill="#165034"/>
<path d="M25.3317 31.3333C24.8043 31.3333 24.2887 31.1769 23.8502 30.8839C23.4117 30.5909 23.0699 30.1744 22.868 29.6872C22.6662 29.1999 22.6134 28.6637 22.7163 28.1464C22.8192 27.6291 23.0731 27.154 23.4461 26.7811C23.819 26.4081 24.2942 26.1541 24.8115 26.0512C25.3287 25.9483 25.8649 26.0012 26.3522 26.203C26.8395 26.4048 27.2559 26.7466 27.549 27.1851C27.842 27.6237 27.9984 28.1393 27.9984 28.6667C27.9984 29.3739 27.7174 30.0522 27.2173 30.5523C26.7172 31.0524 26.039 31.3333 25.3317 31.3333Z" fill="#165034"/>
</g>
<defs>
<clipPath id="clip0_6243_11013">
<rect width="32" height="32" fill="white"/>
</clipPath>
</defs>
</svg>
