<?xml version="1.0" encoding="UTF-8"?>
<svg id="Layer_1" xmlns="http://www.w3.org/2000/svg" version="1.1" viewBox="0 0 32 32">
  <!-- Generator: Adobe Illustrator 29.1.0, SVG Export Plug-In . SVG Version: 2.1.0 Build 142)  -->
  <defs>
    <style>
      .st0 {
        fill: #165034;
      }

      .st1 {
        fill: #2fc175;
      }
    </style>
  </defs>
  <path class="st1" d="M28.2,4l-12-3c-.2,0-.3,0-.5,0L3.8,4c-.2,0-.4.2-.5.4-.1.2-.2.4-.2.6v14c0,3.4,1.4,6.8,3.8,9.2,2.4,2.4,5.7,3.8,9.2,3.8s6.8-1.4,9.2-3.8,3.8-5.7,3.8-9.2V5c0-.2,0-.4-.2-.6-.1-.2-.3-.3-.5-.4ZM22,23c0,.3-.1.5-.3.7s-.4.3-.7.3h-10c-.3,0-.5-.1-.7-.3s-.3-.4-.3-.7v-7c0-.3.1-.5.3-.7s.4-.3.7-.3h1v-2c0-1.1.4-2.1,1.2-2.8.8-.8,1.8-1.2,2.8-1.2s2.1.4,2.8,1.2c.8.8,1.2,1.8,1.2,2.8v2h1c.3,0,.5.1.7.3s.3.4.3.7v7Z"/>
  <path class="st0" d="M22,23c0,.3-.1.5-.3.7s-.4.3-.7.3h-10c-.3,0-.5-.1-.7-.3s-.3-.4-.3-.7v-7c0-.3.1-.5.3-.7s.4-.3.7-.3h1v-2c0-1.1.4-2.1,1.2-2.8.8-.8,1.8-1.2,2.8-1.2s2.1.4,2.8,1.2c.8.8,1.2,1.8,1.2,2.8v2h1c.3,0,.5.1.7.3s.3.4.3.7v7Z"/>
  <path class="st1" d="M16,11c-.5,0-1,.2-1.4.6s-.6.9-.6,1.4v2h4v-2c0-.5-.2-1-.6-1.4-.4-.4-.9-.6-1.4-.6Z"/>
</svg>