<?xml version="1.0" encoding="UTF-8"?>
<svg id="Layer_1" xmlns="http://www.w3.org/2000/svg" version="1.1" viewBox="0 0 32 32">
  <!-- Generator: Adobe Illustrator 29.1.0, SVG Export Plug-In . SVG Version: 2.1.0 Build 142)  -->
  <defs>
    <style>
      .st0 {
        fill: #165034;
      }

      .st1 {
        fill: #2fc175;
      }
    </style>
  </defs>
  <path class="st1" d="M14.9,29.7c-.3,0-.5-.2-.5-.5V.6c0-.3.2-.5.5-.5s.5.2.5.5v28.5c0,.3-.2.5-.5.5h0ZM29.2,15.4H.6c-.3,0-.5-.2-.5-.5s.2-.5.5-.5h28.5c.3,0,.5.2.5.5s-.2.5-.5.5h0ZM26.1,7.3H3.7c-.3,0-.5-.2-.5-.5s.2-.5.5-.5h22.4c.3,0,.5.2.5.5s-.2.5-.5.5ZM27.1,22.5H2.7c-.3,0-.5-.2-.5-.5s.2-.5.5-.5h24.5c.3,0,.5.2.5.5s-.2.5-.5.5h0ZM14.9,29.7C6.7,29.7.1,23,.1,14.9S6.7.1,14.9.1s14.8,6.6,14.8,14.8-6.6,14.8-14.8,14.8ZM14.9,1.1c-7.5,0-13.8,6.2-13.8,13.8s6.2,13.8,13.8,13.8,13.8-6.2,13.8-13.8S22.4,1.1,14.9,1.1h0ZM14.9,29.7c-4.8,0-8.7-6.6-8.7-14.8S10.1.1,14.9.1s8.7,6.6,8.7,14.8-3.9,14.8-8.7,14.8ZM14.9,1.1c-4.2,0-7.6,6.2-7.6,13.8s3.5,13.8,7.6,13.8,7.6-6.2,7.6-13.8S19.1,1.1,14.9,1.1h0Z"/>
  <path class="st0" d="M22.8,10.2l-8.5,3.4c-.2,0-.3.2-.3.4v6.9c0,4.9,3.2,8.9,7.9,10.7,1.1.4,1.1.4,2.2,0,4.7-1.8,7.9-5.8,7.9-10.7v-6.9c0-.2-.1-.3-.3-.4l-8.5-3.4c-.1,0-.2,0-.3,0Z"/>
  <path class="st1" d="M21.5,24.9l-3.2-3.2c-.1-.1-.1-.3,0-.4l.8-.8c.1-.1.3-.1.4,0l1.9,1.9c.1.1.3.1.4,0l5.4-5.5c.1-.1.3-.1.4,0l.8.8c.1.1.1.3,0,.4l-6.7,6.8c0,0-.2,0-.3,0h0Z"/>
</svg>