<?xml version="1.0" encoding="UTF-8"?>
<svg id="Layer_1" xmlns="http://www.w3.org/2000/svg" version="1.1" viewBox="0 0 32 32">
  <!-- Generator: Adobe Illustrator 29.1.0, SVG Export Plug-In . SVG Version: 2.1.0 Build 142)  -->
  <defs>
    <style>
      .st0 {
        fill: #21bf73;
      }

      .st1 {
        fill: #165034;
      }
    </style>
  </defs>
  <path class="st0" d="M26.2,22.8c-.7,1-1.5,1.9-2.5,2.7h-.2c-.4-.3-.8-.5-1.2-.7.5-.6,1-1.3,1.4-1.9h-.5c-.4.6-.8,1.2-1.4,1.8-.7-.3-1.4-.5-2.1-.7h0c.1-.4.3-.7.4-1h-.4l-.4.9c-1-.2-2-.3-3-.4,0-.1,0-.4,0-.5h-.4c0,.2,0,.3,0,.5-1,0-2,.2-2.9.4l-.4-.9h0c-.2,0-.3,0-.5,0l.4.9h0c-.7.3-1.4.5-2.1.8h0c-.5-.5-.9-1.1-1.2-1.6,0-.3-.4-.1-.6-.1.4.7.9,1.3,1.4,2-.4.3-.9.5-1.3.8-1-.7-1.9-1.7-2.6-2.7-.2,0-.3,0-.5,0,1.2,1.8,3,3.4,4.9,4.4h0s0,0,0,0c1.3.6,2.6,1.1,4.1,1.3,5,.7,9.7-1.5,12.5-5.7-.1,0-.4,0-.5,0ZM19.5,24.2h0c.7.1,1.4.4,2,.7-.5.6-1.2,1.1-1.8,1.5-.4.2-.7.5-1.1.7l-.7-.3h0c.6-.9,1.1-1.7,1.6-2.6ZM16.3,23.7c.9,0,1.8.1,2.7.3h0c-.4.9-1,1.8-1.6,2.5-.3,0-.5,0-.8,0h-.3c0-1,0-1.8,0-2.8ZM13.1,24c.8-.2,1.7-.3,2.6-.3v2.7c-.3,0-.7,0-1,.2-.7-.8-1.2-1.6-1.7-2.5h0ZM10.5,24.9c.6-.3,1.3-.5,2-.7h0c.5.9,1.1,1.7,1.6,2.6-.2.1-.5.2-.7.3-1.1-.5-2.1-1.3-2.9-2.2h0ZM12.6,27.7c-1.4-.4-2.6-1-3.8-1.8h0c.4-.3.8-.5,1.2-.7.9.9,1.9,1.6,2.9,2.3l-.3.3ZM18.7,27.8h-.1c-1.7.5-3.6.5-5.3,0h.1c1.5-1.1,3.9-1.1,5.3,0h0ZM23.2,25.8c-.9.7-2,1.2-3,1.6l-.8.2c-.1,0-.2-.2-.4-.3h0c1-.7,2-1.4,2.9-2.3.4.2.9.4,1.2.7h0ZM5.8,9.2c.4-.5.8-1.1,1.3-1.6.4-.4.8-.8,1.3-1.1.4.3.9.5,1.3.8-.5.6-1,1.3-1.4,1.9.1,0,.3,0,.5,0,.4-.6.8-1.2,1.4-1.7.7.3,1.4.5,2.1.7h0c0,0-.4,1-.4,1,.2,0,.3,0,.5,0,.1-.3.3-.6.4-.9.9.2,1.9.3,2.9.4.1.1,0,.4,0,.5h.4c0-.2,0-.3,0-.5.9,0,1.9-.1,2.8-.4h0s.4.9.4.9c.1,0,.3,0,.5,0l-.4-.9h0c.7-.2,1.4-.5,2.2-.8.5.5,1,1.2,1.4,1.8.2,0,.4,0,.5,0-.2-.4-.4-.7-.7-1-.2-.3-.4-.6-.7-.9h0c0,0,1.1-.7,1.1-.7h.2c1,.7,1.9,1.6,2.6,2.6.2,0,.4,0,.5,0-2.2-3.3-5.7-5.4-9.6-5.7h0s0,0,0,0h0c-.4,0-1,0-1.4,0-.2,0-.4,0-.6,0-3.9.3-7.5,2.3-9.7,5.7.2,0,.4,0,.5,0ZM12.5,7.8h0c-.7-.2-1.3-.4-1.9-.6h0c.9-.9,1.8-1.7,2.9-2.2.2,0,.5.2.7.3h0,0c-.6.9-1.1,1.7-1.6,2.6ZM15.7,8.2c-.5,0-.9,0-1.3,0-.4,0-1-.1-1.4-.3.5-.9,1-1.7,1.7-2.5h1c0,1,0,1.9,0,2.8ZM16.2,8.2c0-.9,0-1.8,0-2.7.3,0,.7,0,1-.1.6.8,1.2,1.6,1.7,2.5-.9.2-1.8.3-2.7.3ZM21.4,7.1c-.6.3-1.3.5-2,.7-.5-.9-1.1-1.7-1.7-2.5.2-.1.5-.2.7-.4,1.1.5,2.1,1.3,2.9,2.2h0ZM19.3,4.3c1.4.4,2.6,1,3.8,1.8h0,0c0,0-1.1.7-1.1.7h0c-.9-.9-1.9-1.6-2.9-2.2l.3-.3ZM18.6,4.2h0c-1.4,1.1-3.7,1.2-5.2.2l-.3-.2c1.7-.4,3.7-.4,5.4,0ZM8.8,6.2c1-.8,2.2-1.3,3.4-1.7h.1c0,0,0,0,0,0,.1,0,.2-.1.3,0l.3.2h0c-1,.6-2,1.4-2.9,2.3-.4-.2-.8-.4-1.2-.7h0Z"/>
  <path class="st1" d="M31.2,13.3c-.3-.8-.9-1.5-1.6-2-2.1-1.4-5.3-1.4-7.5-.2-1.2.6-2,1.8-2.2,3.1-.4,2-.3,4.5,1.2,6,1.8,1.6,4.5,2,6.8,1.3.1,0,.5-.1.7-.2h0c.7-.3,1.4-.8,1.9-1.5,1.2-1.8,1.3-4.4.6-6.4ZM27.6,17.9c0,.4-.3.8-.8.9-.7.3-1.5.2-2.2-.1-.5-.4-.6-.9-.6-1.5,0-1.1-.1-2.3.2-3.3.2-.6.9-.8,1.5-.8.6,0,1.3,0,1.7.6h0c.2.4.2.9.3,1.3,0,.9,0,2-.1,2.9ZM16,18.8c0-.2-.2-.3-.3-.4-1.5-.5-3-.9-4.4-1.4-1.1-.4-2.2-1.3-2.4-2.4-.3-1.2,0-2.6,1.1-3.4,1.6-1.2,4.1-1.1,5.9-.3l.7.4c0-.2,0-.5,0-.7.7,0,1.6,0,2.3,0,0,1.3,0,2.5,0,3.8-.8,0-1.6,0-2.3,0-.7-1-1.8-1.4-3-1.6-.5,0-1.2-.2-1.6.4,0,.2,0,.3.2.4h.3c0,.1,3.9,1.3,3.9,1.3,1.3.3,2.6,1.6,2.8,2.9.2,1.4-.5,2.7-1.7,3.4-1.7.9-3.8.7-5.5,0-.3-.1-.6-.3-.8-.4v.8s-2.5,0-2.5,0c0-1.3,0-2.8,0-4.1h2.2c.1.1.2.3.3.5,1.1,1.2,2.8,1.5,4.3,1.1.1,0,.3-.1.3-.3ZM8.2,21.6H1.1c0-.9,0-1.8,0-2.7h1.6s0-.3,0-.3v-5.5c-.5,0-1.1,0-1.6,0,0-.9,0-1.8,0-2.7h1s0,0,0,0h6.1c0,.9,0,1.8,0,2.8h-1.6s0,0,0,0v5.6c.5,0,1.1,0,1.6,0v2.7Z"/>
</svg>