<?xml version="1.0" encoding="UTF-8"?>
<svg id="Layer_1" xmlns="http://www.w3.org/2000/svg" version="1.1" viewBox="0 0 32 32">
  <!-- Generator: Adobe Illustrator 29.1.0, SVG Export Plug-In . SVG Version: 2.1.0 Build 142)  -->
  <defs>
    <style>
      .st0 {
        fill: #21bf73;
      }

      .st1 {
        fill: #165034;
      }
    </style>
  </defs>
  <path class="st1" d="M20.9,18.7c0,.5,0,.9-.3,1.4-.2.4-.5.8-.8,1.1-.9.7-2,1.1-3.2,1.2v2.2h-1.4v-2.2c-1.4,0-2.9-.2-4.2-.8v-2.2c.7.3,1.4.6,2.1.7.7.2,1.4.3,2.1.3v-3.9l-.9-.3c-.9-.3-1.8-.8-2.5-1.6-.5-.6-.8-1.4-.8-2.2,0-.5,0-.9.3-1.3.2-.4.5-.8.8-1,.9-.7,1.9-1.1,3-1.1v-1.7h1.4v1.7c1.4,0,2.7.3,4,.8l-.8,1.9c-1-.4-2.1-.7-3.2-.8v3.8l.8.3c1,.3,1.9.9,2.7,1.6.5.6.8,1.3.8,2.1ZM13.6,12.5c0,.4.1.7.4,1,.4.3.8.6,1.3.8v-3.2c-.5,0-.9.2-1.3.5-.1.1-.2.3-.3.4,0,.2-.1.3-.1.5ZM18.5,18.9c0-.2,0-.4-.1-.5s-.2-.3-.3-.4c-.4-.3-.9-.6-1.4-.8v3.3c1.2-.2,1.8-.7,1.8-1.6Z"/>
  <path class="st0" d="M2.8,15.6c0-2.3.6-4.6,1.9-6.6,1.2-2,3-3.6,5.1-4.7,2.1-1.1,4.5-1.7,6.9-1.6,2.4,0,4.7.8,6.7,2l-2.1,1.7c0,0-.2.2-.2.3,0,.1,0,.2,0,.4,0,.1,0,.2.2.3,0,0,.2.2.3.2l7.6,2.1c0,0,.1,0,.2,0,.2,0,.4,0,.5-.2.1-.1.2-.3.2-.5,0,0,0,0,0,0l-1-7.5c0-.1,0-.2-.1-.3,0,0-.2-.2-.3-.2-.1,0-.2,0-.4,0-.1,0-.2,0-.3.2l-2.3,1.9C23.1,1.2,20.3.2,17.3,0c-3-.2-5.9.4-8.6,1.7-2.6,1.3-4.9,3.3-6.4,5.8C.8,10,0,12.8,0,15.6c0,.4.1.7.4,1,.3.3.6.4,1,.4s.7-.1,1-.4c.3-.3.4-.6.4-1Z"/>
  <path class="st0" d="M30.6,15c-.4,0-.7.1-1,.4-.3.3-.4.6-.4,1,0,2.3-.6,4.6-1.9,6.6-1.2,2-3,3.6-5.1,4.7-2.1,1.1-4.5,1.7-6.9,1.6-2.4,0-4.7-.8-6.7-2l2.1-1.7c0,0,.2-.2.2-.3,0-.1,0-.2,0-.4,0-.1,0-.2-.2-.3,0,0-.2-.2-.3-.2l-7.6-2.1c-.1,0-.2,0-.3,0s-.2,0-.3.1-.2.2-.2.3c0,.1,0,.2,0,.3l1,7.5c0,.1,0,.2.1.3,0,0,.2.2.3.2.1,0,.2,0,.4,0,.1,0,.2,0,.3-.2l2.3-1.9c2.4,1.7,5.3,2.7,8.2,2.9,3,.2,5.9-.4,8.6-1.7,2.6-1.3,4.9-3.3,6.4-5.8,1.5-2.5,2.4-5.3,2.4-8.1s-.1-.7-.4-1c-.3-.3-.6-.4-1-.4Z"/>
</svg>