<?xml version="1.0" encoding="UTF-8"?>
<svg id="xdc_cash" xmlns="http://www.w3.org/2000/svg" version="1.1" viewBox="0 0 851.2 296.5">
  <!-- Generator: Adobe Illustrator 29.1.0, SVG Export Plug-In . SVG Version: 2.1.0 Build 142)  -->
  <defs>
    <style>
      .st0 {
        fill: #b9b6b1;
      }

      .st1 {
        fill: #264d83;
      }

      .st2 {
        display: none;
      }

      .st2, .st3 {
        fill: #416cab;
      }

      .st4 {
        fill: #14294c;
      }
    </style>
  </defs>
  <g id="Layer_22">
    <g id="Layer_23">
      <g>
        <path class="st4" d="M779.2,144.4h68.5l-27.8,35.4h-42c-36.3.1-62.7-7.1-79.2-21.5-7.5-6.6-13.3-15-17.4-25,4.5-12.3,6.8-26.7,6.8-43.1s-2.3-30.9-6.8-43.1c4.1-10,9.8-18.5,17.3-25C715.1,7.5,741.5.2,777.7.2h45.3l28.1,35.3h-72.1c-22.5,0-37.7,4.2-45.8,12.5s-12.1,22.3-12.1,42.1,4.1,33.9,12.2,42c8.2,8.2,23.4,12.3,45.8,12.3h0ZM538.3.3h-40.9c-8.5,0-15.8,4.1-21.9,11.9l-34.3,43.6-34.4-43.6c-6.3-7.9-13.6-11.8-22-11.8h-26.9c-4.6,0-6.9,1.9-6.9,5.8s.9,4,2.6,6.1l59.6,75.4-63.1,80.7c-1.8,2.3-2.6,4.3-2.6,6.1.5,3.7,2.8,5.6,7,5.6h26.7c8.3,0,15.6-3.9,21.8-11.8l38.2-48.8,38.3,48.7c6.2,7.9,13.4,11.8,21.8,11.8h40.5l-72.7-92.4L538.3.3ZM655.9,158.2c7.5-6.6,13.3-15,17.3-25,1.6-3.9,3-8,4.1-12.5,2.2-9.1,3.3-19.3,3.3-30.6s-1.2-21.5-3.4-30.6c-1.1-4.4-2.5-8.6-4.1-12.5-4.1-10-9.8-18.4-17.4-25C639.2,7.5,612.8.3,576.6.3h-28.7l-28,35.5h55.4c22.5,0,37.8,4,45.9,12.2s12.2,22.3,12.2,42.1-4,33.9-12.1,42c-8.1,8.2-23.4,12.3-45.8,12.3h-51.8l27.9,35.5h25.3c36.3,0,62.6-7.3,79.1-21.8h-.1Z"/>
        <polygon class="st3" points="515.1 133.5 514.9 42.3 479.1 87.9 515.1 133.5"/>
        <path class="st2" d="M809.8,225c.2.3.2.7,0,1,0,.3-.4.5-.8.5h-4.7c-.3,0-.6-.1-.7-.4l-12.1-15.2-6.1,6.1v8.5c0,.5-.4.9-.9.9h-3.7c-.5,0-.9-.4-.9-.9v-33.2c0-.5.4-.9.9-.9h3.7c.5,0,.9.4.9.9v17.6l17.4-18.2c.2-.2.4-.3.7-.3h4.8c.4,0,.7.2.9.6,0,.3,0,.7-.2,1l-13.6,13.9,14.3,18.1h0ZM773.7,225.1c.2.3.2.7,0,1,0,.3-.4.5-.8.5h-4.6c-.3,0-.6-.1-.7-.4l-9.3-12.5h-8.1v12c0,.5-.4.9-.9.9h-3.7c-.5,0-.9-.4-.9-.9v-33.2c0-.5.4-.9.9-.9h14.2c1.9,0,3.7.2,5.2.7,1.5.6,2.9,1.3,4.1,2.2s2,2.1,2.6,3.4c.6,1.3.9,2.8.9,4.4s-.2,2.8-.7,4.1c-.5,1.2-1.2,2.3-2.1,3.1-.9.9-2,1.7-3.1,2.2-.7.4-1.5.7-2.4.9l9.5,12.5h-.1ZM762.5,208.1c.9-.3,1.7-.7,2.4-1.2s1.2-1.1,1.5-1.8.6-1.6.6-2.5c0-1.8-.6-3.2-1.9-4.2-1.3-1-3.3-1.5-5.7-1.5h-9.3v11.7h9.3c1.1,0,2.2-.1,3.2-.4h0ZM738.3,202c.9,2.1,1.3,4.5,1.3,6.9s-.4,4.8-1.3,6.9-2.1,4.1-3.6,5.8-3.4,3-5.6,4c-2.2,1-4.7,1.5-7.3,1.5s-5-.5-7.2-1.5-4.1-2.3-5.6-3.9c-1.5-1.7-2.8-3.6-3.6-5.8-.9-2.1-1.3-4.5-1.3-6.9s.4-4.7,1.3-6.9,2.1-4.1,3.6-5.8,3.4-3,5.6-4c2.2-1,4.7-1.5,7.3-1.5s5,.5,7.2,1.5,4.1,2.3,5.6,3.9,2.8,3.6,3.6,5.7h0ZM733.9,209c0-1.8-.3-3.4-.9-5-.6-1.5-1.4-2.9-2.5-4.1s-2.4-2-3.9-2.7-3.1-1-4.8-1-3.4.3-4.8,1-2.8,1.6-3.8,2.7c-1.1,1.2-1.9,2.5-2.5,4.1s-.9,3.2-.9,5,.3,3.5.9,5c.6,1.5,1.4,2.9,2.5,4.1s2.4,2.1,3.9,2.8,3.1,1,4.8,1,3.4-.3,4.8-1,2.8-1.6,3.8-2.7c1.1-1.2,1.9-2.5,2.5-4.1.6-1.5.9-3.2.9-5h0ZM701.3,191.6h-3.9c-.4,0-.7.2-.9.6l-8.6,25-8.3-25.1c0-.4-.5-.6-.9-.6h-3.1c-.4,0-.7.2-.9.6l-8.2,25.1-8.6-25c0-.4-.5-.6-.9-.6h-4.1c-.3,0-.6.1-.7.4s-.2.6,0,.9l11.9,33.4c0,.4.5.6.9.6h3.1c.4,0,.7-.2.9-.6l8.2-24.4,8.2,24.4c0,.4.5.6.9.6h3.2c.4,0,.7-.2.9-.6l11.8-33.3c0-.1,0-.2,0-.4,0-.5-.4-.9-.9-.9h0ZM648.5,191.6h-26c-.5,0-.9.4-.9.9v3.4c0,.5.4.9.9.9h10.2v28.8c0,.5.5.9,1,.9h3.7c.5,0,.9-.4.9-.9v-28.8h10.1c.5,0,.9-.4.9-.9v-3.4c0-.6-.4-.9-.9-.9h0ZM617.3,221.4h-19.6v-9.8h17.2c.5,0,.9-.4.9-.9v-3.4c0-.5-.4-.9-.9-.9h-17.2v-9.5h19.3c.5,0,.9-.4.9-.9v-3.4c0-.5-.4-.9-.9-.9h-24c-.5,0-.9.4-.9.9v33.2c0,.5.5.9,1,.9h24.2c.5,0,.9-.4.9-.9v-3.4c0-.4-.4-.9-1-.9h0ZM583.7,191.7h-3.6c-.5,0-.9.4-.9.9v23.9l-19.3-24.5c-.2-.2-.4-.4-.7-.4h-3.5c-.5,0-.9.4-.9.9v33.2c0,.5.5.9,1,.9h3.6c.5,0,.9-.4.9-.9v-24.5l19.8,25.1c.2.2.4.4.7.4h3c.5,0,.9-.4.9-.9v-33.2c0-.6-.5-.9-1-.9Z"/>
      </g>
      <g>
        <g id="Shape_14">
          <path class="st0" d="M293.3,132.6C259.6-62.6,4.8-24.8.2,132.6c14.7,7.6,23.9,12.3,23.9,12.3,0,0-7.8,4.7-24.1,15.1,29.5,191.3,280,163.5,293.3-.3-15.9-9.8-24.6-14.9-24.6-14.9,0,0,7.4-3.6,24.6-12.2h0ZM167.9,200.7l-23.9-41.1-24.3,41.1-18.4-1.3,34.6-58.3-31.2-50.3,18.8-1.7,22.2,37.3,22.2-35.6,17.5.4-29,49.5,32,59.5-20.5.5h0Z"/>
        </g>
        <g id="Shape_15">
          <path class="st1" d="M281.4,124.9C235.8-48.5,26.4-1.6,12.1,124.9c29,16.3,35.6,20.2,35.6,20.2,0,0-11.2,7.2-35.7,22.7,31.2,166.7,257,134.7,269.4-.2-22.8-14.3-36.2-22.6-36.2-22.6,0,0,30.7-17.1,36.2-20.1ZM167.9,200.9l-23.9-41.1-24.3,41.1-18.4-1.3,34.6-58.3-31.2-50.3,18.8-1.7,22.2,37.3,22.2-35.6,17.5.4-29,49.5,32,59.5-20.5.5Z"/>
        </g>
      </g>
      <path class="st3" d="M369.3,276.1c1.3,1.4,1.9,3.1,1.9,5.1s-.6,3.6-1.9,4.9-3.1,2-5.5,2-4.3-.7-5.5-2-1.8-3-1.8-4.9.6-3.8,1.8-5.1c1.2-1.4,3-2,5.5-2s4.3.7,5.5,2ZM404.4,233.1c3.3-4.3,8-6.5,14-6.5s8.2,1.4,11.3,4.3c3.1,2.9,4.7,6.6,5.1,11h11.2c-.3-7.4-3.1-13.5-8.2-18.1-5.1-4.7-11.6-7-19.4-7s-11.8,1.5-16.4,4.4-8.2,7-10.7,12.2c-2.5,5.3-3.7,11.2-3.7,18v2c0,10.9,2.8,19.5,8.4,25.8s13.1,9.4,22.5,9.4,9.1-1.1,13.4-3.2c4.2-2.1,7.6-5,10.1-8.6s3.9-7.4,4.1-11.3h-11.2c-.3,3.8-2.1,7-5.3,9.6-3.2,2.6-6.9,3.8-11.1,3.8-6.1,0-10.8-2.2-14.1-6.5-3.3-4.3-4.9-10.5-4.9-18.4v-2.2c0-8.2,1.7-14.5,5-18.8h0ZM512.1,271.3c0,6.4.8,11.4,2.4,15.2v1h-12.4c-.7-1.4-1.2-3.8-1.7-7.3-5.5,5.7-12.1,8.6-19.7,8.6s-12.4-1.9-16.8-5.8-6.6-8.8-6.6-14.7,2.7-12.8,8.2-16.8,13.2-6,23.1-6h11.5v-5.4c0-4.1-1.2-7.4-3.7-9.9s-6.1-3.7-10.9-3.7-7.8,1.1-10.6,3.2c-2.9,2.1-4.3,4.7-4.3,7.7h-11.9c0-3.5,1.2-6.8,3.7-10s5.8-5.8,10-7.7,8.8-2.8,13.9-2.8c8,0,14.2,2,18.8,6,4.5,4,6.9,9.5,7,16.5v31.9h0ZM500.3,253.8h-9.3c-14.5,0-21.8,4.2-21.8,12.7s1.2,6.6,3.7,8.7,5.7,3.1,9.5,3.1,7.2-1,10.6-2.9c3.3-1.9,5.7-4.4,7.2-7.5v-14.2h0ZM630.6,216.9c-8.4,0-15.2,3.2-20.5,9.7v-37.5h-11.8v98.4h11.8v-49.4c1.6-3.3,3.9-6,6.8-8.1,2.9-2,6.3-3.1,10.1-3.1s8.2,1.2,10.5,3.6c2.2,2.4,3.4,6.1,3.4,11.1v45.8h11.8v-45.8c0-16.5-7.5-24.8-22.2-24.8h.1ZM582.5,268.2c0,6.2-2.5,11.2-7.4,14.9-3.8,2.9-8.6,4.7-14.2,5.3h0v8h-11.9v-8.3h0c-2.9-.5-5.5-1.3-7.9-2.4-4.3-2-7.6-4.7-10-8.2s-3.6-7.3-3.6-11.4h11.8c.2,4,1.8,7.1,4.8,9.4s6.9,3.5,11.8,3.5,8.1-.9,10.8-2.7c2.7-1.8,4.1-4.2,4.1-7.3s-1.2-5.7-3.6-7.5c-2.4-1.8-6.6-3.3-12.6-4.6-6-1.3-10.8-2.8-14.3-4.6s-6.1-3.9-7.8-6.4-2.5-5.4-2.5-8.8c0-5.7,2.4-10.5,7.2-14.4,3.3-2.7,7.4-4.5,12-5.3h0v-7.9h0c0-.1,11.8-.1,11.8-.1h0v7.8h0c5.4.7,9.9,2.7,13.6,5.7,4.9,4.1,7.3,9.2,7.3,15.6h-11.9c0-3.2-1.4-6-4.1-8.4s-6.2-3.5-10.4-3.5-7.7.9-10.1,2.8c-2.4,1.9-3.6,4.3-3.6,7.4s1.1,5,3.4,6.5c2.3,1.5,6.3,2.8,12.3,4.2,5.9,1.3,10.7,2.9,14.4,4.7s6.4,4,8.2,6.6c1.8,2.6,2.7,5.7,2.7,9.4h-.3ZM555.4,216.9h-2.2,5-2.8ZM551.4,217.1h.8-.8ZM558.4,288.7h-4.5,4.5ZM550.8,288.4h-.2.2ZM552.8,288.6h-.6.6Z"/>
    </g>
  </g>
</svg>