<?xml version="1.0" encoding="UTF-8"?>
<svg id="Layer_1" xmlns="http://www.w3.org/2000/svg" version="1.1" viewBox="0 0 32 32">
  <!-- Generator: Adobe Illustrator 29.1.0, SVG Export Plug-In . SVG Version: 2.1.0 Build 142)  -->
  <defs>
    <style>
      .st0 {
        fill: #165034;
      }

      .st1 {
        fill: #2fc175;
      }
    </style>
  </defs>
  <path class="st1" d="M31.2,20.5c-.1,0-.2.2-.4.3l-12.6,7.1c-1.4.8-3.1.8-4.5,0L1.1,20.8c-.1,0-.2-.2-.4-.3-1,.9-.9,2.6.4,3.3l12.6,7.1c1.4.8,3.1.8,4.5,0l12.6-7.1c1.2-.7,1.4-2.4.4-3.3Z"/>
  <path class="st1" d="M31.2,16.5c-.1,0-.2.2-.4.3l-12.6,7.1c-1.4.8-3.1.8-4.5,0L1.1,16.8c-.1,0-.2-.2-.4-.3-1,.9-.9,2.6.4,3.3l12.6,7.1c1.4.8,3.1.8,4.5,0l12.6-7.1c1.2-.7,1.4-2.4.4-3.3Z"/>
  <path class="st1" d="M31.2,12.5c-.1,0-.2.2-.4.3l-12.6,7.1c-1.4.8-3.1.8-4.5,0L1.1,12.8c-.1,0-.2-.2-.4-.3-1,.9-.9,2.6.4,3.3l12.6,7.1c1.4.8,3.1.8,4.5,0l12.6-7.1c1.2-.7,1.4-2.4.4-3.3Z"/>
  <path class="st0" d="M30.9,11.8l-12.6,7.1c-1.4.8-3.1.8-4.5,0L1.1,11.8c-1.4-.8-1.4-2.8,0-3.5L13.7,1.1c1.4-.8,3.1-.8,4.5,0l12.6,7.1c1.4.8,1.4,2.8,0,3.5Z"/>
  <g>
    <path class="st1" d="M9.4,11.3c.3.2.8.3,1.3.3s.8-.2.8-.6-.2-.5-.9-.7c-.9-.3-1.4-.8-1.4-1.5s.7-1.6,2-1.6,1,.1,1.3.3l-.3,1c-.2-.1-.6-.2-1.1-.2s-.8.2-.8.5.3.5,1,.7c.9.3,1.4.8,1.4,1.6s-.7,1.6-2.1,1.6-1.2-.2-1.5-.3l.2-1Z"/>
    <path class="st1" d="M13.5,7.4c.4,0,1-.1,1.6-.1,1,0,1.6.2,2.1.6.5.4.9,1,.9,2s-.4,1.7-.9,2.1c-.6.5-1.4.7-2.4.7s-1,0-1.3,0v-5.1ZM14.7,11.6c.1,0,.3,0,.4,0,1.1,0,1.8-.6,1.8-1.8,0-1.1-.6-1.7-1.6-1.7s-.4,0-.5,0v3.4Z"/>
    <path class="st1" d="M18.9,7.3h1.2v2.3h0c.1-.2.2-.4.4-.6l1.2-1.7h1.5l-1.7,2.2,1.8,3h-1.4l-1.3-2.3-.5.6v1.7h-1.2v-5.2Z"/>
  </g>
</svg>